<svg class="icon" viewBox="0 0 1024 1024" version="1.1" xmlns="http://www.w3.org/2000/svg" width="200" height="200"><path d="M540.672 233.472h17.408c22.528 0 40.96-18.432 40.96-40.96s-18.432-40.96-40.96-40.96h-17.408c-22.528 0-40.96 18.432-40.96 40.96s18.432 40.96 40.96 40.96z" fill="#333C4F" p-id="21853"></path><path d="M984.064 850.944l-119.808-665.6v-2.048c0-1.024-1.024-2.048-1.024-4.096s-1.024-3.072-2.048-5.12c0-1.024-1.024-2.048-2.048-3.072-1.024-2.048-2.048-3.072-3.072-4.096 0-1.024-1.024-1.024-1.024-2.048l-1.024-1.024-4.096-4.096c-1.024-1.024-2.048-1.024-2.048-2.048-1.024-1.024-3.072-2.048-5.12-3.072-1.024 0-2.048-1.024-2.048-1.024-2.048-1.024-5.12-2.048-8.192-3.072-3.072-1.024-5.12-1.024-8.192-1.024h-63.488c-22.528 0-40.96 18.432-40.96 40.96s18.432 40.96 40.96 40.96h14.336l-122.88 656.384H135.168l190.464-656.384h5.12c22.528 0 40.96-18.432 40.96-40.96s-18.432-40.96-40.96-40.96h-35.84c-18.432 0-33.792 12.288-38.912 29.696L40.96 918.528c-4.096 12.288-1.024 25.6 6.144 35.84 8.192 10.24 19.456 16.384 32.768 16.384H686.08c19.456 0 36.864-14.336 39.936-33.792l7.168-38.912h209.92c12.288 0 23.552-5.12 31.744-14.336 8.192-8.192 11.264-20.48 9.216-32.768z m-235.52-33.792l74.752-398.336 71.68 398.336H748.544z" fill="#333C4F" p-id="21854"></path><path d="M408.576 314.368c3.072 1.024 6.144 1.024 9.216 1.024 18.432 0 35.84-12.288 39.936-31.744l41.984-180.224c5.12-22.528-8.192-44.032-30.72-49.152s-44.032 8.192-49.152 30.72l-41.984 180.224c-5.12 22.528 8.192 44.032 30.72 49.152zM632.832 314.368c3.072 1.024 6.144 1.024 9.216 1.024 18.432 0 35.84-12.288 39.936-31.744l41.984-180.224c5.12-22.528-8.192-44.032-30.72-49.152-21.504-5.12-44.032 8.192-49.152 30.72l-41.984 180.224c-5.12 22.528 8.192 44.032 30.72 49.152zM392.192 835.584h23.552c10.24 0 20.48-6.144 24.576-16.384l139.264-315.392 6.144-41.984c1.024-10.24-6.144-19.456-17.408-19.456H410.624c-9.216 0-16.384 6.144-17.408 15.36l-10.24 69.632c-2.048 14.336 9.216 27.648 23.552 27.648h18.432c12.288 0 22.528-9.216 23.552-20.48l4.096-25.6h55.296l-133.12 302.08c-4.096 10.24 4.096 24.576 17.408 24.576z"></path></svg>
