<svg class="icon" viewBox="0 0 1024 1024" version="1.1" xmlns="http://www.w3.org/2000/svg" width="200" height="200"><path d="M699.733333 1006.933333h-105.813333c-51.2 0-102.4-20.48-136.533333-54.613333l-317.44-307.2c-10.24-10.24-17.066667-27.306667-17.066667-44.373333s6.826667-30.72 17.066667-44.373334c37.546667-37.546667 102.4-40.96 143.36-10.24l75.093333 61.44V238.933333c0-44.373333 40.96-85.333333 85.333333-85.333333s85.333333 40.96 85.333334 85.333333v136.533334c13.653333-10.24 30.72-17.066667 51.2-17.066667 37.546667 0 71.68 30.72 81.92 68.266667 13.653333-10.24 34.133333-17.066667 51.2-17.066667 40.96 0 75.093333 30.72 85.333333 68.266667 13.653333-10.24 34.133333-17.066667 54.613333-17.066667 47.786667 0 85.333333 37.546667 85.333334 81.92v232.106667c0 126.293333-105.813333 232.106667-238.933334 232.106666z m-481.28-443.733333c-20.48 0-40.96 6.826667-54.613333 20.48-3.413333 3.413333-6.826667 10.24-6.826667 17.066667s3.413333 13.653333 6.826667 17.066666l317.44 307.2c30.72 30.72 71.68 44.373333 116.053333 44.373334h105.813334c112.64 0 204.8-88.746667 204.8-197.973334v-232.106666c0-27.306667-23.893333-47.786667-51.2-47.786667s-51.2 17.066667-51.2 44.373333v10.24c0 10.24-6.826667 17.066667-17.066667 17.066667s-17.066667-6.826667-17.066667-17.066667v-51.2c0-27.306667-23.893333-51.2-51.2-51.2s-51.2 20.48-51.2 47.786667V546.133333c0 10.24-6.826667 17.066667-17.066666 17.066667s-17.066667-6.826667-17.066667-17.066667v-98.986666c0-27.306667-23.893333-54.613333-51.2-54.613334s-51.2 23.893333-51.2 51.2v102.4c0 10.24-6.826667 17.066667-17.066667 17.066667s-17.066667-6.826667-17.066666-17.066667V238.933333c0-27.306667-23.893333-51.2-51.2-51.2s-54.613333 23.893333-54.613334 51.2v409.6c0 6.826667-3.413333 13.653333-10.24 17.066667-6.826667 3.413333-13.653333 3.413333-17.066666-3.413333l-102.4-85.333334c-13.653333-10.24-30.72-13.653333-44.373334-13.653333zM170.666667 392.533333c-10.24 0-17.066667-6.826667-17.066667-17.066666V34.133333c0-10.24 6.826667-17.066667 17.066667-17.066666s17.066667 6.826667 17.066666 17.066666v341.333334c0 10.24-6.826667 17.066667-17.066666 17.066666z" fill="" p-id="10403"></path><path d="M238.933333 119.466667c-3.413333 0-10.24 0-13.653333-3.413334L170.666667 58.026667 112.64 116.053333c-6.826667 6.826667-17.066667 6.826667-23.893333 0s-6.826667-17.066667 0-23.893333l68.266666-68.266667c6.826667-6.826667 17.066667-6.826667 23.893334 0l68.266666 68.266667c6.826667 6.826667 6.826667 17.066667 0 23.893333-3.413333 3.413333-6.826667 3.413333-10.24 3.413334zM324.266667 290.133333c-6.826667 0-10.24-3.413333-13.653334-10.24-13.653333-20.48-20.48-47.786667-20.48-75.093333 0-85.333333 68.266667-153.6 153.6-153.6s153.6 68.266667 153.6 153.6c0 27.306667-6.826667 54.613333-20.48 78.506667-3.413333 6.826667-13.653333 10.24-23.893333 6.826666-6.826667-6.826667-10.24-17.066667-6.826667-23.893333 10.24-17.066667 17.066667-37.546667 17.066667-61.44 0-64.853333-54.613333-119.466667-119.466667-119.466667S324.266667 139.946667 324.266667 204.8c0 20.48 6.826667 40.96 17.066666 61.44 3.413333 6.826667 0 17.066667-6.826666 20.48-3.413333 3.413333-6.826667 3.413333-10.24 3.413333z"></path></svg>
