<svg class="icon" viewBox="0 0 1024 1024" version="1.1" xmlns="http://www.w3.org/2000/svg" width="200" height="200"><path d="M341.333333 640a42.666667 42.666667 0 0 1 42.666667 42.666667v213.333333a42.666667 42.666667 0 0 1-85.333333 0v-170.666667H128a42.666667 42.666667 0 0 1 0-85.333333z m554.666667 0a42.666667 42.666667 0 0 1 0 85.333333h-170.666667v170.666667a42.666667 42.666667 0 0 1-85.333333 0v-213.333333a42.666667 42.666667 0 0 1 42.666667-42.666667h213.333333zM341.333333 85.333333a42.666667 42.666667 0 0 1 42.666667 42.666667v213.333333a42.666667 42.666667 0 0 1-42.666667 42.666667H128a42.666667 42.666667 0 1 1 0-85.333333h170.666667V128a42.666667 42.666667 0 0 1 42.666666-42.666667z m341.333334 0a42.666667 42.666667 0 0 1 42.666666 42.666667v170.666667h170.666667a42.666667 42.666667 0 0 1 0 85.333333h-213.333333a42.666667 42.666667 0 0 1-42.666667-42.666667V128a42.666667 42.666667 0 0 1 42.666667-42.666667z"></path></svg>
