<svg class="icon" viewBox="0 0 1024 1024" version="1.1" xmlns="http://www.w3.org/2000/svg" width="200" height="200"><path d="M782.4 424c0-8 1.6-16 1.6-24 0-150.4-121.6-272-272-272-148.8 0-270.4 120-272 268.8h-1.6c-3.2 1.6-6.4 1.6-8 3.2-9.6 3.2-19.2 8-27.2 12.8-3.2 1.6-6.4 3.2-8 4.8-6.4 3.2-11.2 6.4-16 9.6-3.2 1.6-4.8 3.2-8 4.8-3.2 1.6-4.8 3.2-8 6.4-3.2 1.6-4.8 4.8-8 6.4-4.8 3.2-9.6 8-14.4 12.8-1.6 3.2-4.8 4.8-6.4 8-1.6 3.2-4.8 4.8-6.4 8-1.6 1.6-4.8 4.8-6.4 8-1.6 3.2-4.8 4.8-6.4 8-3.2 4.8-8 11.2-11.2 16-1.6 1.6-3.2 4.8-3.2 6.4-1.6 1.6-3.2 4.8-3.2 8-1.6 3.2-3.2 6.4-4.8 8-6.4 14.4-12.8 28.8-16 44.8 0 1.6-1.6 4.8-1.6 6.4l-4.8 19.2c0 3.2-1.6 6.4-1.6 9.6v32c0 136 105.6 248 240 256h16c64 0 124.8-24 169.6-64 12.8-11.2 24-24 35.2-36.8 3.2-4.8 8-9.6 11.2-14.4 3.2-4.8 6.4-11.2 9.6-16 3.2-4.8 4.8-9.6 8-14.4 1.6-1.6 1.6-3.2 3.2-6.4l4.8-9.6v-1.6-1.6c1.6-4.8 3.2-8 4.8-12.8 0-1.6 1.6-3.2 1.6-6.4 1.6-4.8 3.2-8 3.2-12.8 1.6-4.8 1.6-9.6 3.2-14.4 1.6-6.4 1.6-11.2 3.2-17.6 0-3.2 1.6-14.4 1.6-14.4v-65.6l91.2 91.2 44.8-44.8-177.6-171.2-169.6 169.6 44.8 44.8 92.8-92.8V662.4c0 1.6 0 4.8-1.6 6.4v6.4c0 1.6 0 3.2-1.6 4.8 0 1.6-1.6 4.8-1.6 6.4 0 3.2-1.6 4.8-1.6 8-1.6 3.2-1.6 6.4-3.2 9.6l-4.8 9.6-4.8 9.6c-6.4 11.2-12.8 22.4-20.8 32-3.2 4.8-8 9.6-12.8 14.4l-4.8 4.8-4.8 4.8c-33.6 30.4-78.4 48-126.4 48-105.6 0-192-86.4-192-192v-14.4c0-4.8 1.6-8 1.6-12.8v-4.8c0-3.2 1.6-6.4 1.6-9.6 0-1.6 0-3.2 1.6-4.8 1.6-3.2 1.6-8 3.2-11.2 1.6-4.8 3.2-9.6 4.8-12.8 3.2-4.8 6.4-12.8 11.2-20.8 1.6-3.2 4.8-8 6.4-11.2l1.6-1.6c3.2-3.2 4.8-8 8-11.2 3.2-3.2 4.8-6.4 8-9.6l1.6-1.6 9.6-9.6c4.8-3.2 8-8 12.8-11.2 3.2-1.6 6.4-4.8 8-6.4 6.4-4.8 12.8-8 20.8-12.8 1.6-1.6 4.8-1.6 6.4-3.2 3.2-1.6 6.4-3.2 11.2-4.8 1.6-1.6 4.8-1.6 8-3.2s6.4-1.6 8-3.2c3.2-1.6 6.4-1.6 9.6-3.2 3.2 0 4.8-1.6 8-1.6h1.6c1.6 0 4.8 0 6.4-1.6h4.8c3.2 0 4.8 0 8-1.6h8c-3.2-16-6.4-32-6.4-48v-16c8-107.2 97.6-192 208-192 115.2 0 208 92.8 208 208v16c-1.6 22.4-6.4 44.8-16 64h16c17.6 0 33.6 3.2 49.6 8C843.2 508.8 896 576 896 656c0 97.6-78.4 176-176 176H556.8l3.2 3.2V896h176c124.8-8 224-112 224-240 0-110.4-75.2-204.8-177.6-232z"></path></svg>
