<svg viewBox="0 0 1024 1024" version="1.1" xmlns="http://www.w3.org/2000/svg"  width="200" height="200">
<path d="M894.6 892.8H123.3c-13.8 0-25 11.2-25 25s11.2 25 25 25h771.4c13.8 0 25-11.2 25-25s-11.3-25-25.1-25zM399.8 811c0 13.8 11.2 25 25 25h462.7c13.8 0 25-11.2 25-25s-11.2-25-25-25H424.8c-13.8 0-25 11.2-25 25zM146.3 841.3c4.2 2.9 9.1 4.3 14 4.3 4.4 0 8.8-1.2 12.7-3.5L335.8 746c4.9-1.7 9.1-5 12.1-9.3l307.5-442.5 0.9-1.2 57.5-82.7c7.9-11.3 5.1-26.9-6.3-34.8l-136.7-95c-5.4-3.8-12.2-5.3-18.7-4.1-6.5 1.2-12.3 4.9-16.1 10.3L481.6 165l-0.9 1.2-310.6 447c-1.2 1.8-2.2 3.7-2.9 5.7-1 2.2-1.8 4.5-2.2 7l-29.4 190.9c-1.5 9.5 2.7 19.1 10.7 24.5z m46.7-69.1l15.4-99.8 71.8 48.4-87.2 51.4z m369.8-636.3l95.6 66.5-26.8 38.5-95.6-66.5 26.8-38.5z m-57.5 82.7l95.6 66.5-279.8 402.6-95.6-66.5 279.8-402.6z"></path></svg>
