<svg class="icon" viewBox="0 0 1024 1024" version="1.1" xmlns="http://www.w3.org/2000/svg"width="200" height="200"><path d="M1023.2 946.1c-9.5-7.2-18.8-14.5-27.2-13.4-152 2.6-234.4-46.1-246.2-137.6-10.6-83.4 16.2-137.6 91-214.9 8.3-1 44.5-48 60.2-58.5l43.6-56.4c101.7-131.5 74.1-280.4-29.2-360.2-55.3-35.3-125.1-51.7-199-33.8l-47-36.3c-27.1-13.4-61.5-17.5-83.3 10.7L45.6 715.9c-7.3 9.4-21.8 28.2-19.7 44.8L0.6 958.7c-4.1 34.4 14.7 48.9 47 36.3L241 919.4c16.6-2.1 39.5-22 46.7-31.4l540.4-670.4c22.9-19.8 18.6-53.2-9.6-74.9L790.4 121c33.3-4.3 60.4 9.2 88.6 31 75.1 58.1 90.1 174.7 18.5 277-14.5 18.7-30.1 29.3-44.6 48-15.6 10.4-51.9 57.4-60.2 58.5-81 95-115 158.7-102.3 258.6C706.6 919 807.7 982.2 994.2 983.7c8.3-1.1 16.7-2.2 23.8-11.5 7.3-9.4 6.3-17.8 5.2-26.1zM695.4 268.9L297.1 763l-41 50.9-24.6 30.5c-7.2 9.4-14.5 18.9-22.8 19.9l-153 61.9L78.1 771c4.7-17.7 13.4-27.1 13.4-27.1l24.6-30.5 41-50.9 398.4-494.1L632 73.5l139.9 100.6-35.6 44.1-40.9 50.7z"></path><path d="M555.6 168.4l139.8 100.5 40.9-50.6-139.9-100.6zM116.2 713.4L256 813.9l41.1-50.9-139.9-100.5z"></path></svg>
